<?xml version="1.0" standalone="no"?><!DOCTYPE svg PUBLIC "-//W3C//DTD SVG 1.1//EN" "http://www.w3.org/Graphics/SVG/1.1/DTD/svg11.dtd"><svg t="1652081853263" class="icon" viewBox="0 0 1024 1024" version="1.1" xmlns="http://www.w3.org/2000/svg" p-id="1146" xmlns:xlink="http://www.w3.org/1999/xlink" width="200" height="200"><defs><style type="text/css"></style></defs><path d="M981.510373 854.041494c0 70.107884-57.360996 127.46888-127.468879 127.468879H169.958506c-70.107884 0-127.46888-57.360996-127.468879-127.468879V169.958506c0-70.107884 57.360996-127.46888 127.468879-127.468879h684.082988c70.107884 0 127.46888 57.360996 127.468879 127.468879v684.082988z" fill="#FFA6A6" p-id="1147"></path><path d="M82.854772 894.406639v-684.082988c0-70.107884 57.360996-127.46888 127.468879-127.468879h684.082988a126.381145 126.381145 0 0 1 64.928398 17.922124C937.049228 63.415768 896.229444 38.240664 849.792531 38.240664H165.709544C95.60166 38.240664 38.240664 95.60166 38.240664 165.709544v684.082987c0 46.436913 25.175104 87.256697 62.536232 109.542506A126.381145 126.381145 0 0 1 82.854772 894.406639z" fill="#FFB3B3" p-id="1148"></path><path d="M822.51844 424.063469h-211.734307l-104.375768-226.622672-98.401726 226.622672H196.285079l175.941045 158.048664-50.694373 214.691585 184.876614-128.220946 199.790473 122.268149-59.629942-229.613942z" fill="#FFFFFF" p-id="1149"></path><path d="M345.576631 694.973079C367.751967 645.370689 461.246141 548.116183 516.248963 548.116183c51.493178 0 139.302241 71.837212 164.41361 144.400995l-34.089428-131.280199 175.945295-137.17351h-211.734307l-104.375768-226.622672-98.401726 226.622672H196.285079l175.945294 158.048664-26.653742 112.860946z" opacity=".05" p-id="1150"></path><path d="M528.405245 443.430241c70.107884 0 120.075685 36.345627 176.49766 72.330091l117.615535-91.701112h-211.734307l-104.375768-226.622672-98.401726 226.626921H196.285079l111.497029 100.156548c59.171054-41.202191 145.187054-80.789776 220.623137-80.789776z" opacity=".05" p-id="1151"></path><path d="M930.025693 66.870174A126.257925 126.257925 0 0 1 943.26971 123.219917v684.082988c0 70.107884-57.360996 127.46888-127.46888 127.468879H131.717842c-30.341842 0-58.283021-10.758373-80.233162-28.62951C72.381079 948.18151 115.801228 977.261411 165.709544 977.261411h684.082987c70.107884 0 127.46888-57.360996 127.46888-127.46888V165.709544c0-39.766041-18.465992-75.419087-47.235718-98.83937z" fill="#EB9999" p-id="1152"></path></svg>